<mxfile host="app.diagrams.net" modified="2024-07-05T04:57:04.209Z" agent="Mozilla/5.0 (Windows NT 10.0; Win64; x64) AppleWebKit/537.36 (KHTML, like Gecko) Chrome/126.0.0.0 Safari/537.36" version="24.6.4" etag="KNdp0wBdK--23u4aoMMb" type="github">
  <diagram name="Страница — 1" id="-HcKgE4IciE3LmVMyZH1">
    <mxGraphModel>
      <root>
        <mxCell id="0" />
        <mxCell id="1" parent="0" />
      </root>
    </mxGraphModel>
  </diagram>
</mxfile>
